<?xml version="1.0" encoding="UTF-8"?>
<!DOCTYPE svg PUBLIC "-//W3C//DTD SVG 1.1//EN" "http://www.w3.org/Graphics/SVG/1.1/DTD/svg11.dtd">
<!-- Creator: CorelDRAW -->
<svg xmlns="http://www.w3.org/2000/svg" xml:space="preserve" width="297mm" height="466mm" style="shape-rendering:geometricPrecision; text-rendering:geometricPrecision; image-rendering:optimizeQuality; fill-rule:evenodd; clip-rule:evenodd"
viewBox="0 0 297 466"
 xmlns:xlink="http://www.w3.org/1999/xlink">
 <defs>
  <style type="text/css">
   <![CDATA[
    .fil0 {fill:#263238;fill-rule:nonzero}
    .fil1 {fill:#607D8B;fill-rule:nonzero}
   ]]>
  </style>
 </defs>
 <g id="Camada_x0020_1">
  <metadata id="CorelCorpID_0Corel-Layer"/>
  <g id="_373241256">
   <path id="_373241544" class="fil0" d="M115.962 220.463l0.0682 -0.0588 0.0822 0.0086c0.0459,0 0.0849,-0.0115 0.1183,-0.0373 0.032,-0.0257 0.0584,-0.0386 0.0793,-0.0415 0.0209,-0.0029 0.0446,-0.0172 0.0738,-0.043 0.0278,-0.0244 0.0696,-0.0416 0.1239,-0.0516 0.0542,-0.01 0.0932,-0.0272 0.1183,-0.053 0.025,-0.0244 0.0529,-0.0416 0.0835,-0.0488 0.032,-0.0057 0.0668,-0.0186 0.1086,-0.0344l0.3702 -0.1175c0.0056,0 0.0209,0.0043 0.0459,0.0158l0.0154 0c0.0334,0 0.0654,-0.0129 0.096,-0.0402 0.032,-0.0258 0.0682,-0.0387 0.1128,-0.0387 0.0264,0 0.0793,-0.0172 0.1586,-0.0515l0.0237 0.0257c0.0445,-0.0501 0.0807,-0.0759 0.1114,-0.0759l0.0236 0c0.0056,0 0.0306,0.0057 0.0738,0.0172 0.0682,-0.0229 0.1239,-0.033 0.167,-0.033l0.0933 -0.0086c0.0055,0 0.0139,0.0029 0.025,0.0086 0.0223,-0.0258 0.0515,-0.0415 0.0891,-0.0473l0.0459 0 0.1671 -0.0415 0.0487 0.0172c0.032,-0.0287 0.0821,-0.0416 0.1503,-0.0416l0.0418 0 0.0403 0.0072c0.0056,0 0.0307,-0.0072 0.0752,-0.0244 0.0446,-0.0172 0.1545,-0.0258 0.3285,-0.0258l0.1058 0.0172c0.0682,-0.0287 0.1044,-0.0416 0.1099,-0.0416l0.1142 0.0244 0.0445 -0.0158 0.0167 0c0.0056,0 0.0195,0.0043 0.0404,0.0158l0.0083 0 0.2938 -0.0415c0.0055,0 0.0166,0.0028 0.0334,0.0085 0.0208,-0.02 0.0375,-0.0301 0.0487,-0.0301l0.0765 0.0216c0.0223,0 0.0599,-0.0158 0.1142,-0.0459l0.025 0.0243 0.277 -0.0329 0.103 0.0086 0.0891 -0.0172c0.0891,0 0.1573,0.0243 0.2018,0.0731 0.0446,0.0501 0.0668,0.0989 0.0668,0.149l0.0167 0.1304 -0.025 0.0717 -0.007 0.0846c-0.0139,0.0329 -0.0348,0.0559 -0.0612,0.0673 0,0.0058 -0.0125,0.0115 -0.0376,0.0187 -0.0236,0.0071 -0.0487,0.0186 -0.0724,0.0358 -0.025,0.0158 -0.1058,0.0244 -0.2408,0.0244 -0.0682,0 -0.1113,-0.0215 -0.1308,-0.0645 -0.0181,-0.043 -0.039,-0.0688 -0.0613,-0.0731l-0.1753 -0.076c-0.0056,-0.0057 -0.0209,-0.0086 -0.0488,-0.0086l-0.032 0 -0.167 0.0172c-0.0056,0 -0.0209,-0.0029 -0.0445,-0.0086 -0.0362,0.0172 -0.0543,0.0244 -0.0571,0.0244l-0.3021 -0.0158 -0.1225 0.0086 -0.0849 -0.0172c-0.0111,0 -0.0306,0.0043 -0.057,0.0129 -0.0279,0.0086 -0.0849,0.0143 -0.1712,0.0201 -0.0877,0.0057 -0.1309,0.0344 -0.1309,0.0845 0,0.0301 0.0111,0.0645 0.0348,0.1004 0.0223,0.0372 0.0348,0.0659 0.0348,0.0888 -0.0417,0.0588 -0.0612,0.096 -0.0612,0.1132 -0.0112,0.0086 -0.0307,0.0258 -0.0571,0.0545 -0.0278,0.0272 -0.078,0.0717 -0.1517,0.1319 -0.0724,0.0601 -0.1225,0.116 -0.1503,0.1662 -0.0265,0.0502 -0.0599,0.076 -0.0975,0.076 -0.0487,0.0473 -0.0835,0.0903 -0.1016,0.129l-0.0334 0.0344c-0.0056,0.0057 -0.0084,0.0186 -0.0084,0.0372 0,0.0172 -0.0069,0.0344 -0.0236,0.0502l-0.0376 0.1017c-0.0181,0.0086 -0.0738,0.0803 -0.167,0.2179l-0.0487 0.0258 -0.0488 0.0587 -0.057 0c-0.0237,0 -0.0362,0.0158 -0.0362,0.0502l0.0167 0.1218c-0.0418,0.0359 -0.0738,0.0846 -0.0988,0.1462l-0.0488 0.0846c-0.057,0.0587 -0.0849,0.0903 -0.0849,0.096 0,0.0143 -0.0278,0.0745 -0.0821,0.1806l-0.0083 0.0415c0,0.0488 -0.0947,0.1849 -0.2854,0.4128 -0.0264,0.053 -0.0431,0.1333 -0.0487,0.2422 -0.0807,0.1663 -0.1364,0.2451 -0.167,0.2394 -0.0056,0.1075 -0.0223,0.1935 -0.0515,0.2608 -0.0279,0.0674 -0.0641,0.1663 -0.11,0.2967 -0.0445,0.129 -0.0919,0.2221 -0.1406,0.278l-0.0167 0.0344c-0.0097,0.0215 -0.0236,0.0445 -0.0404,0.0674 -0.0055,0.0745 -0.0306,0.1949 -0.0779,0.3612l-0.0237 0.1805 -0.0821 0.2351c-0.0083,0.0157 -0.0125,0.0329 -0.0125,0.0501 0,0.0115 0.0097,0.033 0.0264,0.0645 0.0181,0.033 0.0265,0.0631 0.0265,0.0903 0,0.0402 -0.0056,0.0717 -0.0195,0.0946 -0.0139,0.0244 -0.0209,0.0559 -0.0209,0.0946 0,0.0874 -0.0445,0.1448 -0.135,0.172l-0.032 0 -0.0849 0.0086c-0.1156,0 -0.2185,-0.0559 -0.3104,-0.1677 -0.0933,-0.1118 -0.1392,-0.2666 -0.1392,-0.4615 0,-0.0114 0.0083,-0.0544 0.025,-0.129 0.0167,-0.0745 0.0251,-0.1218 0.0279,-0.1447 0.0028,-0.0215 0.0097,-0.0459 0.0208,-0.0688 0.0112,-0.0244 0.0168,-0.0588 0.0168,-0.1032 0,-0.1376 0.0334,-0.2565 0.0988,-0.3569 0.0668,-0.1003 0.1114,-0.1734 0.1336,-0.2178 0.0056,-0.0201 0.0139,-0.033 0.0279,-0.0387 -0.0084,-0.0215 -0.0126,-0.0502 -0.0126,-0.0831 0,-0.0817 0.0348,-0.1477 0.103,-0.1978 0.0056,-0.023 0.0139,-0.0488 0.0279,-0.0774 0.0139,-0.0301 0.0417,-0.1003 0.0863,-0.215 0.0431,-0.1132 0.1002,-0.1791 0.1712,-0.1992 -0.0028,-0.0057 0.0125,-0.0272 0.0487,-0.0674l-0.0167 -0.1462c0,-0.0229 0.025,-0.0602 0.0738,-0.1132l0.0696 -0.1175c0.0111,-0.0473 0.0459,-0.0917 0.1057,-0.1304 0.0167,-0.0287 0.0334,-0.0445 0.0529,-0.0502 0.0028,-0.0114 0.014,-0.0459 0.0348,-0.1046 0.0209,-0.0588 0.0641,-0.1333 0.1309,-0.2207 0.0654,-0.0889 0.1294,-0.1806 0.1907,-0.2752 0.0612,-0.0946 0.1169,-0.1448 0.167,-0.1476 0.0515,-0.0029 0.0793,-0.0316 0.0849,-0.0875l0.0237 -0.1562c0.0793,-0.0688 0.1266,-0.1189 0.1433,-0.1462l0.0571 -0.0673c0.0097,-0.0387 0.0251,-0.0645 0.0417,-0.0774 0.0182,-0.0129 0.0404,-0.0387 0.0683,-0.0774 0.0264,-0.0401 0.0612,-0.0745 0.1016,-0.1061 0.0348,-0.1146 0.1155,-0.2135 0.2408,-0.2981l0.0654 -0.0702c0.0459,-0.0674 0.0835,-0.1132 0.1141,-0.1376 0.0293,-0.0229 0.0515,-0.0544 0.0668,-0.0931 0.0153,-0.0402 0.0446,-0.0688 0.0877,-0.0889 0.0432,-0.0201 0.0655,-0.0416 0.0655,-0.0674 0,-0.0114 -0.0112,-0.0172 -0.032,-0.0172 -0.0223,0 -0.0585,0.0086 -0.1114,0.0258l-0.032 0 -0.0738 0.0172 -0.0236 0 -0.0696 -0.0172c-0.0488,0.0172 -0.0877,0.0258 -0.1142,0.0258 -0.0056,0.0043 -0.0236,0.0172 -0.0529,0.0373l-0.0905 0 -0.0487 0.0502 -0.0362 0.0086 -0.1058 -0.0172c-0.0334,0 -0.0723,0.0172 -0.1183,0.0501 0,0.0058 -0.0445,0.0158 -0.1336,0.0301 -0.0877,0.0144 -0.1712,0.0402 -0.2505,0.0774 -0.078,0.0373 -0.1267,0.0573 -0.142,0.0573l-0.0738 -0.0172 -0.0083 0c-0.0348,0 -0.0682,0.0187 -0.0975,0.0545 -0.0306,0.0358 -0.0737,0.0588 -0.1308,0.0674l-0.0487 0c-0.0404,0 -0.0961,0.0157 -0.1657,0.0501 -0.0696,0.033 -0.1057,0.0502 -0.1113,0.0502l-0.0738 -0.0086c-0.0334,0.0229 -0.0612,0.0387 -0.0835,0.0458 -0.0237,0.0086 -0.046,0.023 -0.0682,0.0402 -0.0209,0.0186 -0.0432,0.0315 -0.0654,0.0401 -0.0209,0.0086 -0.046,0.0244 -0.0752,0.0459 -0.0278,0.0229 -0.0515,0.0344 -0.0668,0.0344l-0.0167 0 -0.0487 -0.0086c-0.0195,0 -0.0446,0.0172 -0.0738,0.0516 -0.0306,0.0358 -0.0585,0.0573 -0.0835,0.0659 -0.0265,0.0086 -0.0501,0.0215 -0.0738,0.0401 -0.0237,0.0172 -0.0473,0.0287 -0.071,0.0316 -0.0139,0.0129 -0.0334,0.0444 -0.057,0.0917 -0.0251,0.0473 -0.0557,0.0888 -0.0947,0.1232 -0.0376,0.0359 -0.0626,0.0631 -0.0752,0.0817 -0.0125,0.0201 -0.0236,0.0301 -0.0348,0.0301 -0.1336,0 -0.2004,-0.086 -0.2004,-0.2565l0.0821 -0.1806c0.0571,-0.1419 0.1434,-0.2293 0.2603,-0.2594 0.0306,0 0.1072,-0.0315 0.2325,-0.0932l0.16 -0.0716z"/>
   <path id="_373241784" class="fil1" d="M129.201 225.584l0.0171 0.1763c0,0.0098 -0.0228,0.063 -0.0686,0.1568 -0.0471,0.0951 -0.0771,0.1707 -0.0899,0.2281 -0.0143,0.0573 -0.0457,0.0853 -0.0928,0.0853l-0.0415 0c-0.0057,0.0112 -0.0085,0.0224 -0.0085,0.0336l0.0085 0.0896c0,0.0364 -0.0099,0.0993 -0.0299,0.1889 -0.0186,0.091 -0.0472,0.1483 -0.0829,0.1721l-0.0257 0.0294c-0.0057,0.0406 -0.0271,0.105 -0.0642,0.1945 -0.0386,0.0882 -0.07,0.1582 -0.0943,0.2085 -0.0257,0.0504 -0.0443,0.1134 -0.0585,0.189 -0.0143,0.0755 -0.0329,0.1231 -0.0543,0.1455 -0.0172,0.077 -0.0343,0.1399 -0.05,0.1903 -0.0171,0.0504 -0.0385,0.119 -0.0628,0.2029 0.0057,0.0112 0.0128,0.0168 0.0243,0.0168 0.0171,0 0.0385,-0.0294 0.0628,-0.0895 0.0114,-0.0112 0.03,-0.0196 0.0571,-0.0238 0.0257,-0.0042 0.0486,-0.0336 0.0686,-0.0882l0.0085 -0.0154c0.03,-0.0056 0.0529,-0.021 0.0671,-0.0476 0.0143,-0.0266 0.0286,-0.0419 0.0457,-0.0475 0.0172,-0.0056 0.0358,-0.0182 0.0586,-0.0406l0.03 -0.0084c0.01,-0.0056 0.02,-0.0196 0.0285,-0.0448 0.0086,-0.0252 0.0186,-0.0434 0.03,-0.0574l0.0586 0 0.0157 -0.0084c0.0228,-0.0867 0.05,-0.1441 0.0814,-0.1707 0.0328,-0.0252 0.0571,-0.056 0.0743,-0.091 0.0157,-0.0364 0.0371,-0.0629 0.0599,-0.0825 0.0243,-0.0196 0.0415,-0.0546 0.0529,-0.1064 0.05,-0.0574 0.0814,-0.1021 0.0957,-0.1357 0.0142,-0.0322 0.0342,-0.0602 0.0585,-0.0812l0.0086 -0.0294 -0.0172 -0.049 0 -0.0168c0,-0.0209 0.0329,-0.0769 0.0986,-0.1637 0.0657,-0.0881 0.1071,-0.1609 0.1242,-0.2197 0.0171,-0.0588 0.0314,-0.1049 0.0457,-0.1413 0.0143,-0.035 0.0257,-0.0756 0.0343,-0.1204 0.0071,-0.0462 0.0228,-0.0826 0.0457,-0.1105 0.0214,-0.0294 0.0328,-0.0686 0.0328,-0.1176 0,-0.084 -0.0385,-0.1917 -0.1171,-0.3191 -0.0057,-0.0056 -0.0114,-0.0223 -0.0171,-0.0503 -0.0043,-0.0266 -0.0328,-0.0588 -0.0814,-0.0952 -0.0486,-0.0378 -0.0843,-0.056 -0.1071,-0.056l-0.0329 0.0168c-0.0057,0.0056 -0.0228,0.014 -0.0528,0.0238 -0.0286,0.0112 -0.0428,0.0378 -0.0428,0.0784l0 0.0168 0.0071 0.0895c0,0.0252 -0.0357,0.056 -0.1085,0.0952zm5.0354 -0.6325l0.0171 0.0937 0.0086 0.0084 0.0671 0 0.0214 0.0084c0.0557,0.0112 0.0971,0.0168 0.1243,0.0168 0.0871,0 0.1556,-0.021 0.207,-0.0644 0.0514,-0.042 0.0929,-0.0629 0.1243,-0.0629 0.03,0 0.0557,-0.021 0.0771,-0.0616 0.0214,-0.0406 0.0343,-0.0616 0.04,-0.0616l0.0585 0 0.0158 -0.0084c0,-0.063 0.0285,-0.1077 0.0871,-0.1357 0.0571,-0.0266 0.0971,-0.063 0.1199,-0.1078 0.0243,-0.0448 0.0514,-0.0797 0.0829,-0.1021 0.0299,-0.0238 0.0514,-0.0546 0.0628,-0.0924l0.0328 -0.0504c0.0115,-0.0098 0.0172,-0.0308 0.0172,-0.0602l0.0785 -0.1483c0.0172,-0.0686 0.0257,-0.1217 0.0257,-0.1595 0,-0.0574 -0.03,-0.1022 -0.0899,-0.1358 -0.06,-0.0322 -0.09,-0.0965 -0.09,-0.1931 0,-0.063 0.0328,-0.1203 0.0985,-0.1735 0.0657,-0.0532 0.0986,-0.0854 0.0986,-0.0966 0,-0.0168 -0.0086,-0.0252 -0.0257,-0.0252 -0.0086,0 -0.04,0.0112 -0.0957,0.0336 -0.02,0.0378 -0.1186,0.0882 -0.2971,0.1512 -0.0585,-0.0266 -0.0914,-0.0406 -0.0971,-0.0406 -0.0157,0 -0.0328,0.0168 -0.05,0.049 -0.0171,0.0335 -0.0328,0.0559 -0.0499,0.0699l-0.0543 0c-0.0057,0 -0.0243,0.0182 -0.0543,0.0532 -0.0314,0.035 -0.0699,0.0532 -0.1171,0.0532l-0.05 0.049c0.0029,0.0447 -0.0257,0.0895 -0.0842,0.1357l-0.0457 0.0532c-0.0286,0.0336 -0.0643,0.0714 -0.1086,0.1147l-0.0756 0.1848c-0.03,0.0713 -0.0457,0.1245 -0.0457,0.1595 -0.0086,0.0168 -0.0272,0.0336 -0.0572,0.0518 -0.0285,0.0182 -0.0428,0.0406 -0.0428,0.0671 0,0.0056 0.0086,0.0196 0.0286,0.0406 0.0199,0.0224 0.0299,0.0392 0.0299,0.0504l-0.0171 0.0532 -0.0171 0.1511 0.0414 0.1316zm1.3024 -0.1064l-0.1971 0.1679c-0.01,-0.0112 -0.0214,-0.0154 -0.0328,-0.0154 -0.0286,0 -0.0629,0.0238 -0.1029,0.0728 -0.0399,0.049 -0.0685,0.0742 -0.0856,0.0742l-0.0414 -0.0084c-0.07,0.0518 -0.12,0.0826 -0.1514,0.0909 -0.03,0.007 -0.0672,0.0224 -0.11,0.0448 -0.0443,0.021 -0.0828,0.0336 -0.1171,0.0364 -0.0357,0.0028 -0.0642,0.014 -0.0857,0.035 -0.0228,0.021 -0.0771,0.0308 -0.1642,0.0308l-0.0671 -0.0084c-0.0357,0.0168 -0.06,0.0252 -0.07,0.0252 -0.0229,0 -0.0471,-0.0126 -0.0714,-0.035 -0.0257,-0.0238 -0.0529,-0.0364 -0.0814,-0.0392 -0.03,-0.0028 -0.06,-0.0224 -0.09,-0.0574 -0.0314,-0.035 -0.06,-0.0601 -0.0856,-0.0741 -0.0272,-0.0126 -0.0486,-0.0322 -0.0658,-0.0574l-0.0585 -0.049c-0.0471,-0.0322 -0.0928,-0.0924 -0.1385,-0.1805 -0.0443,-0.0868 -0.0657,-0.1553 -0.0657,-0.2043l0 -0.0168 0.0071 -0.0784 -0.0071 -0.0895c0.01,-0.0112 0.0243,-0.035 0.0414,-0.07l0 -0.1316 0.1 -0.3274c0.0057,-0.014 -0.0057,-0.0322 -0.0329,-0.0532 -0.0285,0.0406 -0.0557,0.0658 -0.0842,0.0742 -0.0286,0.007 -0.0472,0.0266 -0.0572,0.0573 -0.0099,0.0294 -0.0257,0.0448 -0.0485,0.0448l-0.05 -0.0168c-0.0057,0.0056 -0.0186,0.0336 -0.0386,0.084 -0.02,0.0504 -0.0528,0.0756 -0.1013,0.0756 -0.05,0 -0.0757,-0.0182 -0.0757,-0.0574l0.0025 -0.0215c-0.0111,0.0245 -0.0215,0.0513 -0.0311,0.0802 -0.02,0.056 -0.0428,0.0952 -0.07,0.1176 -0.0257,0.021 -0.0471,0.0462 -0.0642,0.0714 -0.0172,0.0266 -0.0629,0.0644 -0.1357,0.1133 -0.0743,0.049 -0.1371,0.0994 -0.1885,0.1498 -0.0514,0.0503 -0.0943,0.0867 -0.1285,0.1077l-0.18 0.1274 -0.0243 0.042c-0.0057,0.0041 -0.0314,0.0167 -0.0771,0.0335 -0.0471,0.0182 -0.0885,0.0406 -0.1242,0.0686l-0.0757 0.0406c-0.0157,0.0112 -0.0428,0.0182 -0.0814,0.021 -0.0371,0.0028 -0.07,0.0182 -0.0985,0.0462 -0.0272,0.0294 -0.05,0.0433 -0.0672,0.0433l-0.0628 -0.0083 -0.0828 0.0251c-0.0472,0 -0.1057,-0.0279 -0.1743,-0.0839 -0.0685,-0.056 -0.1028,-0.1162 -0.1028,-0.1777l0 -0.0252 0.0086 -0.0574c0,-0.0112 -0.0086,-0.0392 -0.0243,-0.084 -0.0171,-0.0448 -0.0257,-0.0699 -0.0257,-0.0755l0.0086 -0.0574 -0.0086 -0.0252c0,-0.0742 0.0057,-0.1204 0.0171,-0.14 0.0115,-0.0182 0.02,-0.0447 0.0243,-0.0797 0.0057,-0.0336 0.0114,-0.0616 0.0172,-0.084l0.0214 -0.1021c0.0114,-0.0322 0.0243,-0.0546 0.0414,-0.0658 0.0057,-0.021 0.0171,-0.0588 0.0343,-0.1106l0.0157 -0.0741 0.0428 -0.0574c0.0214,-0.021 0.0343,-0.0504 0.0386,-0.0882 0.0043,-0.0364 0.02,-0.0756 0.0443,-0.1161 0.0257,-0.0406 0.0385,-0.0658 0.0385,-0.0742 0,-0.0322 -0.0171,-0.049 -0.0514,-0.049 -0.01,0 -0.0457,0.0224 -0.1043,0.0658l-0.0756 -0.0252c-0.0058,0 -0.02,0.014 -0.0457,0.042 0,0.0098 -0.0129,0.0182 -0.0372,0.0238 -0.0257,0.0056 -0.0485,0.0266 -0.0714,0.0615l-0.0328 0.0084 -0.0557 -0.0251 -0.0157 0c-0.0017,0 -0.0034,0.0001 -0.005,0.0003l-0.0007 0.0011c-0.0129,0.1091 -0.0486,0.1637 -0.1043,0.1637 -0.0114,0 -0.03,0.0224 -0.0585,0.07 -0.03,-0.0056 -0.0486,-0.0084 -0.0543,-0.0084 -0.0229,0.0321 -0.05,0.0629 -0.0843,0.0895l-0.0242 0c-0.0062,0 -0.015,0.0025 -0.0264,0.0075 -0.0145,0.0196 -0.0332,0.0382 -0.0565,0.0555 -0.0428,0.0322 -0.0699,0.0476 -0.0842,0.0476 -0.0072,0 -0.0141,-0.0004 -0.0207,-0.0011 -0.088,0.0634 -0.2054,0.1542 -0.3521,0.2726 -0.0171,0.0154 -0.0299,0.0266 -0.0414,0.0322l-0.0799 -0.0084c0,0.0056 -0.0172,0.0335 -0.05,0.0825 -0.0414,0.014 -0.0871,0.0392 -0.1385,0.0784 -0.05,0.0378 -0.0872,0.0616 -0.11,0.0728 -0.0243,0.0112 -0.0457,0.0293 -0.0657,0.0559 -0.0186,0.0252 -0.0457,0.0448 -0.0785,0.0546l-0.0543 0.0504 -0.0257 0c-0.0229,0 -0.05,0.0126 -0.0814,0.0406 -0.0329,0.0266 -0.0486,0.0531 -0.0486,0.0769 0,0.0112 0.0129,0.0336 0.0386,0.0658 0.0214,-0.0154 0.0999,0.0672 0.2342,0.2491 0.1328,0.1805 0.1999,0.3555 0.1999,0.522 0,0.1231 -0.0185,0.2029 -0.0557,0.2407 -0.0385,0.0364 -0.0571,0.063 -0.0571,0.0798 0,0.0098 0.0043,0.0419 0.0129,0.0937l0 0.0168c0,0.0266 -0.0158,0.0434 -0.0486,0.049 -0.0314,0.0056 -0.05,0.0168 -0.0557,0.0322l0 0.1035 -0.0171 0.049c-0.0357,0.0182 -0.0743,0.0826 -0.1129,0.1917 -0.0842,0.0854 -0.1442,0.133 -0.1799,0.1442l-0.0086 0.0168 0.0086 0.1105c0,0.0266 -0.0129,0.049 -0.0371,0.0658 -0.0257,0.0154 -0.06,0.0504 -0.1029,0.1035 -0.0428,0.0532 -0.0871,0.091 -0.1313,0.1134 -0.0115,0.0518 -0.0329,0.0882 -0.0657,0.1106 -0.0314,0.0223 -0.0643,0.0531 -0.0971,0.0937l-0.0257 0.0168c-0.0257,0.0056 -0.0486,0.035 -0.0714,0.091l-0.0329 0.007c-0.04,0.0657 -0.0771,0.1133 -0.1157,0.1413 -0.0371,0.0294 -0.0642,0.056 -0.0813,0.0812l-0.0672 0.0405c-0.0242,0.049 -0.0757,0.105 -0.1542,0.168 -0.0057,0 -0.0171,-0.0084 -0.0343,-0.0252l-0.0114 0c-0.0114,0 -0.0214,0.0112 -0.03,0.0336 -0.0086,0.0224 -0.0228,0.042 -0.0457,0.0616 -0.0228,0.0182 -0.0443,0.0461 -0.0671,0.0811l-0.0172 0.0168c-0.0356,0 -0.0928,0.0476 -0.1713,0.1442 -0.0529,0.0098 -0.0986,0.0293 -0.1371,0.0573 -0.0586,0.0658 -0.1,0.098 -0.1214,0.098 -0.0029,0 -0.0343,-0.0224 -0.0928,-0.0672 -0.0586,-0.0462 -0.0871,-0.1175 -0.0871,-0.2155 0,-0.0252 -0.0172,-0.0532 -0.0515,-0.0868 -0.0042,-0.0294 -0.0099,-0.0727 -0.0157,-0.1301l0 -0.0378c0,-0.0322 0.0115,-0.0714 0.0329,-0.1147l0.0257 -0.0854c0.0057,-0.0224 0.0143,-0.0406 0.0243,-0.0532 0.0114,-0.014 0.0271,-0.0532 0.0485,-0.1175 0.0214,-0.0644 0.0457,-0.1274 0.0728,-0.1904l0.0086 -0.0405c0.0314,-0.1316 0.0557,-0.196 0.0757,-0.1932 0.0171,-0.0405 0.0329,-0.0951 0.05,-0.1637 0.0171,-0.0686 0.0286,-0.1245 0.0357,-0.1679 0.0071,-0.0448 0.0271,-0.0798 0.06,-0.1078l0.1057 -0.3274 0.0414 -0.0896 0.0257 -0.1035c0,-0.0098 0.0128,-0.0266 0.0385,-0.049 0.0272,-0.021 0.04,-0.0406 0.04,-0.0574 0.0671,-0.2533 0.1357,-0.4268 0.2057,-0.5206l0.0999 -0.2463c0.0115,-0.0546 0.0372,-0.0979 0.0772,-0.1301 0.0414,-0.0336 0.0613,-0.0616 0.0613,-0.0868 0,-0.0168 -0.0285,-0.0406 -0.0856,-0.0714 -0.0572,-0.0322 -0.0857,-0.0615 -0.0857,-0.0881 0,-0.028 0.0914,-0.0812 0.2756,-0.1596 0,-0.0769 0.0414,-0.1581 0.1257,-0.2421 0.02,-0.0167 0.0285,-0.0363 0.0285,-0.0573 0,-0.0658 0.0143,-0.119 0.0429,-0.161l0.0328 -0.0937c0.0115,-0.0322 0.0343,-0.0686 0.0686,-0.1092 0.0357,-0.0392 0.0528,-0.0784 0.0528,-0.1161l0 -0.0336c-0.0357,-0.0014 -0.0871,0.0448 -0.1542,0.1399 -0.07,0 -0.1271,0.0504 -0.1714,0.1525 -0.0228,0.0574 -0.0743,0.0938 -0.1556,0.1106 -0.0357,0.0644 -0.0957,0.1106 -0.18,0.1344 -0.0585,-0.035 -0.0885,-0.0658 -0.0885,-0.0896l0.0371 -0.2547c0,-0.0574 0.1428,-0.2001 0.427,-0.4296 0.0171,0 0.0714,-0.0532 0.1642,-0.1568l0.2299 -0.2532c0.1257,-0.1232 0.22,-0.2142 0.2842,-0.2715 0.12,-0.1862 0.18,-0.3079 0.18,-0.3681 0.0557,-0.0504 0.1042,-0.1511 0.1442,-0.3064 0.04,-0.154 0.0785,-0.2659 0.1128,-0.3359 0.0357,-0.07 0.0557,-0.1204 0.0614,-0.1539 0.1114,-0.3303 0.1928,-0.5374 0.2471,-0.6228l0.0414 -0.1357 0.0628 -0.049c0.0057,-0.014 0.0115,-0.056 0.0172,-0.1274 0.03,-0.0098 0.0628,-0.0699 0.0957,-0.1805 0.0328,-0.1091 0.0671,-0.1833 0.0999,-0.2253 0.0343,-0.0406 0.0557,-0.084 0.0671,-0.1287 0.0115,-0.0448 0.0457,-0.0896 0.1029,-0.1358 0.0571,-0.0448 0.1142,-0.0671 0.1728,-0.0671 0.02,0 0.0528,0.0279 0.0985,0.0839 0.0471,0.056 0.0743,0.1204 0.0842,0.1931 0.01,0.0728 0.0172,0.1218 0.0229,0.147 0.0057,0.0266 0.0086,0.0616 0.0086,0.1049l0.0085 0.119c0,0.021 -0.0114,0.0909 -0.0342,0.2085 -0.0215,0.1176 -0.0386,0.2015 -0.0472,0.2519 -0.01,0.0518 -0.0385,0.0853 -0.0857,0.1007 -0.0485,0.0168 -0.0713,0.0336 -0.0713,0.049 0,0.0168 0.0114,0.0294 0.0328,0.0392 0.0228,0.0098 0.0343,0.0168 0.0343,0.0224 0,0.0112 -0.0172,0.0476 -0.0486,0.1092 -0.0328,0.0615 -0.0628,0.1007 -0.09,0.1161 0.0172,0.0336 0.0258,0.0532 0.0258,0.0574 0,0.014 -0.0215,0.0574 -0.0615,0.1301 -0.0399,0.0728 -0.0728,0.1204 -0.0985,0.1456 -0.0243,0.0238 -0.05,0.0797 -0.0757,0.1679 -0.0243,0.0868 -0.0885,0.1609 -0.1913,0.2211 -0.04,0.0378 -0.0743,0.1008 -0.1029,0.1889 -0.0299,0.0868 -0.0714,0.1414 -0.1271,0.1638l-0.0557 0.0783 0 0.0154c0,0.042 -0.0128,0.0868 -0.0414,0.1358 -0.0271,0.0489 -0.0557,0.1077 -0.0828,0.1749 -0.0286,0.0658 -0.0543,0.1105 -0.08,0.1329 -0.0114,0.063 -0.0314,0.119 -0.0585,0.1694 -0.0286,0.0517 -0.0443,0.0951 -0.05,0.1343l-0.03 0.0322c-0.0557,0.0084 -0.0828,0.0336 -0.0828,0.0784l0.0157 0.0895c0,0.0028 -0.0243,0.0476 -0.0743,0.1358l-0.0171 0.0811c-0.0143,0.0686 -0.04,0.1148 -0.08,0.1386 -0.0385,0.0224 -0.0642,0.0741 -0.0743,0.1525l-0.0171 0.0994c0,0.0056 0.0029,0.0126 0.0086,0.0238 0.0057,0 0.0214,-0.014 0.05,-0.0448 0.0385,0.014 0.0614,0.021 0.0671,0.021 0.0157,0 0.0328,-0.0126 0.0471,-0.035 0.0157,-0.0238 0.04,-0.0406 0.0743,-0.0518l0.0157 -0.0084c0.0143,-0.0378 0.0357,-0.0588 0.0628,-0.0616 0.0286,-0.0028 0.0514,-0.0154 0.0714,-0.0378 0.02,-0.0237 0.0343,-0.0349 0.0457,-0.0349 0.0057,0 0.0257,0.0098 0.0586,0.0321l0.0086 0 0.0371 -0.0167 -0.0072 -0.0658c0,-0.0266 0.0115,-0.0448 0.0372,-0.0532 0.0257,-0.007 0.0428,-0.021 0.0542,-0.0406l0.1543 -0.0979c0.0671,-0.028 0.1171,-0.0574 0.1485,-0.0882 0.0328,-0.0322 0.0671,-0.0546 0.1056,-0.0686l0.0003 -0.0001 0.0512 -0.0447 0.0257 0c0.0014,0 0.0028,0 0.0043,-0.0002 0.0019,-0.0018 0.0038,-0.0036 0.0057,-0.0054 0.0096,-0.0094 0.0241,-0.0171 0.0438,-0.0232 0.0105,-0.0089 0.022,-0.0199 0.0347,-0.0327l0.0414 -0.0168c0.0557,-0.0812 0.1043,-0.1288 0.1457,-0.1428l0.0671 -0.0489c0.0114,-0.0112 0.0271,-0.021 0.0486,-0.0294 0.0214,-0.0084 0.0542,-0.035 0.0999,-0.0798 0.0472,-0.0448 0.0829,-0.0672 0.1114,-0.0672 0.0286,0 0.05,0.0028 0.0671,0.0084 0.0172,-0.0335 0.05,-0.0657 0.1,-0.0965 0.05,-0.0322 0.0914,-0.07 0.1214,-0.1134l0.0543 -0.0238c0.0457,-0.0224 0.0842,-0.0504 0.1199,-0.0839 0.0343,-0.035 0.08,-0.0518 0.1357,-0.0518 0.0814,0 0.1657,0.0406 0.2528,0.1203 0.0885,0.0812 0.1328,0.1582 0.1328,0.2323l-0.0714 0.3191c-0.0472,0.2351 -0.1,0.3583 -0.16,0.3694l-0.0157 0.0868c-0.04,0.0266 -0.0585,0.049 -0.0585,0.0658l0.0242 0.0979c0,0.014 -0.0143,0.0336 -0.0457,0.0616 -0.0057,0 -0.0085,0.0084 -0.0085,0.0238l0 0.1693c0,0.0294 -0.0186,0.0546 -0.0586,0.0728 0.0057,0.0056 0.0143,0.0112 0.0257,0.0168 0.0172,-0.0168 0.0543,-0.0252 0.1129,-0.0252l0.0671 0.0084 0.0914 -0.0896c0.02,-0.0056 0.0471,-0.0182 0.0814,-0.0391 0.0357,-0.021 0.0942,-0.0476 0.1785,-0.0798l0.5484 -0.4114c0.0756,-0.0742 0.1328,-0.1106 0.1713,-0.1106 0.0157,0 0.0285,0.0038 0.0384,0.0114l0.003 -0.0044c0.0443,-0.0644 0.0857,-0.1008 0.1243,-0.1105 0.0371,-0.0098 0.0685,-0.035 0.0957,-0.0784 0.0271,-0.042 0.0842,-0.0938 0.1742,-0.154 0.05,-0.0097 0.0928,-0.0461 0.13,-0.1063 0.0385,-0.0294 0.0899,-0.0546 0.1528,-0.0742 0.0628,-0.0182 0.1099,-0.0462 0.1428,-0.0839 0.0314,-0.0364 0.1271,-0.0938 0.2841,-0.1722 0.1586,-0.0769 0.2728,-0.1161 0.3456,-0.1161 0.0229,0 0.0529,-0.007 0.0929,-0.0182 0.0385,-0.0126 0.0757,-0.0238 0.1085,-0.0336 0.0329,-0.0098 0.0686,-0.0238 0.1043,-0.0448 0.0371,-0.021 0.0656,-0.0308 0.0885,-0.0308l0.1214 0.0406c0.09,0.0252 0.1442,0.0434 0.1642,0.0532 0.0043,0.0056 0.0329,0.0182 0.0857,0.035 0.0514,0.0182 0.1042,0.042 0.1585,0.0727 0.0543,0.0294 0.0814,0.0854 0.0814,0.168 -0.0471,0.0685 -0.07,0.1049 -0.07,0.1105 0,0.0112 0.0315,0.0266 0.0957,0.049 0.0229,0.0406 0.0557,0.0938 0.1,0.1595l0.0471 0.1442 0.0086 0.3358 -0.0086 0.0322c-0.0314,0.028 -0.0471,0.0462 -0.0471,0.0546l0.0128 0.0812 -0.0328 0.1147c-0.0086,0.0364 -0.0229,0.0588 -0.0428,0.07 -0.0186,0.0112 -0.0315,0.0252 -0.0372,0.0406l-0.0243 0.0336c-0.0057,0.0084 -0.0185,0.0322 -0.0357,0.0713 -0.0185,0.0392 -0.0385,0.07 -0.0614,0.0924 -0.0214,0.0224 -0.0357,0.0476 -0.0414,0.0784 -0.0057,0.0294 -0.02,0.0517 -0.0414,0.0657 -0.0228,0.0126 -0.0385,0.028 -0.0486,0.042 -0.01,0.0154 -0.0257,0.028 -0.0485,0.0392z"/>
   <path id="_373241352" class="fil1" d="M132.564 221.804l-0.0257 -0.1595 0 -0.0252c0,-0.1274 0.0443,-0.1988 0.1342,-0.2128 0.0186,-0.0028 0.0786,-0.0209 0.1757,-0.0531 0.05,0.0112 0.1028,0.0546 0.1571,0.1287 0.0542,0.0756 0.0814,0.1414 0.0814,0.1987 0,0.0056 -0.0043,0.0182 -0.0129,0.0364 -0.0085,0.0196 -0.0143,0.056 -0.0171,0.1092 -0.0014,0.0531 -0.03,0.0993 -0.0814,0.1399 -0.0514,0.0392 -0.1057,0.0588 -0.1642,0.0588 -0.04,0 -0.09,-0.0266 -0.15,-0.0798 -0.06,-0.0532 -0.0914,-0.1007 -0.0971,-0.1413z"/>
   <g>
    <path id="_373241712" class="fil0" d="M115.962 220.463l0.0682 -0.0588 0.0822 0.0086c0.0459,0 0.0849,-0.0115 0.1183,-0.0373 0.032,-0.0257 0.0584,-0.0386 0.0793,-0.0415 0.0209,-0.0029 0.0446,-0.0172 0.0738,-0.043 0.0278,-0.0244 0.0696,-0.0416 0.1239,-0.0516 0.0542,-0.01 0.0932,-0.0272 0.1183,-0.053 0.025,-0.0244 0.0529,-0.0416 0.0835,-0.0488 0.032,-0.0057 0.0668,-0.0186 0.1086,-0.0344l0.3702 -0.1175c0.0056,0 0.0209,0.0043 0.0459,0.0158l0.0154 0c0.0334,0 0.0654,-0.0129 0.096,-0.0402 0.032,-0.0258 0.0682,-0.0387 0.1128,-0.0387 0.0264,0 0.0793,-0.0172 0.1586,-0.0515l0.0237 0.0257c0.0445,-0.0501 0.0807,-0.0759 0.1114,-0.0759l0.0236 0c0.0056,0 0.0306,0.0057 0.0738,0.0172 0.0682,-0.0229 0.1239,-0.033 0.167,-0.033l0.0933 -0.0086c0.0055,0 0.0139,0.0029 0.025,0.0086 0.0223,-0.0258 0.0515,-0.0415 0.0891,-0.0473l0.0459 0 0.1671 -0.0415 0.0487 0.0172c0.032,-0.0287 0.0821,-0.0416 0.1503,-0.0416l0.0418 0 0.0403 0.0072c0.0056,0 0.0307,-0.0072 0.0752,-0.0244 0.0446,-0.0172 0.1545,-0.0258 0.3285,-0.0258l0.1058 0.0172c0.0682,-0.0287 0.1044,-0.0416 0.1099,-0.0416l0.1142 0.0244 0.0445 -0.0158 0.0167 0c0.0056,0 0.0195,0.0043 0.0404,0.0158l0.0083 0 0.2938 -0.0415c0.0055,0 0.0166,0.0028 0.0334,0.0085 0.0208,-0.02 0.0375,-0.0301 0.0487,-0.0301l0.0765 0.0216c0.0223,0 0.0599,-0.0158 0.1142,-0.0459l0.025 0.0243 0.277 -0.0329 0.103 0.0086 0.0891 -0.0172c0.0891,0 0.1573,0.0243 0.2018,0.0731 0.0446,0.0501 0.0668,0.0989 0.0668,0.149l0.0167 0.1304 -0.025 0.0717 -0.007 0.0846c-0.0139,0.0329 -0.0348,0.0559 -0.0612,0.0673 0,0.0058 -0.0125,0.0115 -0.0376,0.0187 -0.0236,0.0071 -0.0487,0.0186 -0.0724,0.0358 -0.025,0.0158 -0.1058,0.0244 -0.2408,0.0244 -0.0682,0 -0.1113,-0.0215 -0.1308,-0.0645 -0.0181,-0.043 -0.039,-0.0688 -0.0613,-0.0731l-0.1753 -0.076c-0.0056,-0.0057 -0.0209,-0.0086 -0.0488,-0.0086l-0.032 0 -0.167 0.0172c-0.0056,0 -0.0209,-0.0029 -0.0445,-0.0086 -0.0362,0.0172 -0.0543,0.0244 -0.0571,0.0244l-0.3021 -0.0158 -0.1225 0.0086 -0.0849 -0.0172c-0.0111,0 -0.0306,0.0043 -0.057,0.0129 -0.0279,0.0086 -0.0849,0.0143 -0.1712,0.0201 -0.0877,0.0057 -0.1309,0.0344 -0.1309,0.0845 0,0.0301 0.0111,0.0645 0.0348,0.1004 0.0223,0.0372 0.0348,0.0659 0.0348,0.0888 -0.0417,0.0588 -0.0612,0.096 -0.0612,0.1132 -0.0112,0.0086 -0.0307,0.0258 -0.0571,0.0545 -0.0278,0.0272 -0.078,0.0717 -0.1517,0.1319 -0.0724,0.0601 -0.1225,0.116 -0.1503,0.1662 -0.0265,0.0502 -0.0599,0.076 -0.0975,0.076 -0.0487,0.0473 -0.0835,0.0903 -0.1016,0.129l-0.0334 0.0344c-0.0056,0.0057 -0.0084,0.0186 -0.0084,0.0372 0,0.0172 -0.0069,0.0344 -0.0236,0.0502l-0.0376 0.1017c-0.0181,0.0086 -0.0738,0.0803 -0.167,0.2179l-0.0487 0.0258 -0.0488 0.0587 -0.057 0c-0.0237,0 -0.0362,0.0158 -0.0362,0.0502l0.0167 0.1218c-0.0418,0.0359 -0.0738,0.0846 -0.0988,0.1462l-0.0488 0.0846c-0.057,0.0587 -0.0849,0.0903 -0.0849,0.096 0,0.0143 -0.0278,0.0745 -0.0821,0.1806l-0.0083 0.0415c0,0.0488 -0.0947,0.1849 -0.2854,0.4128 -0.0264,0.053 -0.0431,0.1333 -0.0487,0.2422 -0.0807,0.1663 -0.1364,0.2451 -0.167,0.2394 -0.0056,0.1075 -0.0223,0.1935 -0.0515,0.2608 -0.0279,0.0674 -0.0641,0.1663 -0.11,0.2967 -0.0445,0.129 -0.0919,0.2221 -0.1406,0.278l-0.0167 0.0344c-0.0097,0.0215 -0.0236,0.0445 -0.0404,0.0674 -0.0055,0.0745 -0.0306,0.1949 -0.0779,0.3612l-0.0237 0.1805 -0.0821 0.2351c-0.0083,0.0157 -0.0125,0.0329 -0.0125,0.0501 0,0.0115 0.0097,0.033 0.0264,0.0645 0.0181,0.033 0.0265,0.0631 0.0265,0.0903 0,0.0402 -0.0056,0.0717 -0.0195,0.0946 -0.0139,0.0244 -0.0209,0.0559 -0.0209,0.0946 0,0.0874 -0.0445,0.1448 -0.135,0.172l-0.032 0 -0.0849 0.0086c-0.1156,0 -0.2185,-0.0559 -0.3104,-0.1677 -0.0933,-0.1118 -0.1392,-0.2666 -0.1392,-0.4615 0,-0.0114 0.0083,-0.0544 0.025,-0.129 0.0167,-0.0745 0.0251,-0.1218 0.0279,-0.1447 0.0028,-0.0215 0.0097,-0.0459 0.0208,-0.0688 0.0112,-0.0244 0.0168,-0.0588 0.0168,-0.1032 0,-0.1376 0.0334,-0.2565 0.0988,-0.3569 0.0668,-0.1003 0.1114,-0.1734 0.1336,-0.2178 0.0056,-0.0201 0.0139,-0.033 0.0279,-0.0387 -0.0084,-0.0215 -0.0126,-0.0502 -0.0126,-0.0831 0,-0.0817 0.0348,-0.1477 0.103,-0.1978 0.0056,-0.023 0.0139,-0.0488 0.0279,-0.0774 0.0139,-0.0301 0.0417,-0.1003 0.0863,-0.215 0.0431,-0.1132 0.1002,-0.1791 0.1712,-0.1992 -0.0028,-0.0057 0.0125,-0.0272 0.0487,-0.0674l-0.0167 -0.1462c0,-0.0229 0.025,-0.0602 0.0738,-0.1132l0.0696 -0.1175c0.0111,-0.0473 0.0459,-0.0917 0.1057,-0.1304 0.0167,-0.0287 0.0334,-0.0445 0.0529,-0.0502 0.0028,-0.0114 0.014,-0.0459 0.0348,-0.1046 0.0209,-0.0588 0.0641,-0.1333 0.1309,-0.2207 0.0654,-0.0889 0.1294,-0.1806 0.1907,-0.2752 0.0612,-0.0946 0.1169,-0.1448 0.167,-0.1476 0.0515,-0.0029 0.0793,-0.0316 0.0849,-0.0875l0.0237 -0.1562c0.0793,-0.0688 0.1266,-0.1189 0.1433,-0.1462l0.0571 -0.0673c0.0097,-0.0387 0.0251,-0.0645 0.0417,-0.0774 0.0182,-0.0129 0.0404,-0.0387 0.0683,-0.0774 0.0264,-0.0401 0.0612,-0.0745 0.1016,-0.1061 0.0348,-0.1146 0.1155,-0.2135 0.2408,-0.2981l0.0654 -0.0702c0.0459,-0.0674 0.0835,-0.1132 0.1141,-0.1376 0.0293,-0.0229 0.0515,-0.0544 0.0668,-0.0931 0.0153,-0.0402 0.0446,-0.0688 0.0877,-0.0889 0.0432,-0.0201 0.0655,-0.0416 0.0655,-0.0674 0,-0.0114 -0.0112,-0.0172 -0.032,-0.0172 -0.0223,0 -0.0585,0.0086 -0.1114,0.0258l-0.032 0 -0.0738 0.0172 -0.0236 0 -0.0696 -0.0172c-0.0488,0.0172 -0.0877,0.0258 -0.1142,0.0258 -0.0056,0.0043 -0.0236,0.0172 -0.0529,0.0373l-0.0905 0 -0.0487 0.0502 -0.0362 0.0086 -0.1058 -0.0172c-0.0334,0 -0.0723,0.0172 -0.1183,0.0501 0,0.0058 -0.0445,0.0158 -0.1336,0.0301 -0.0877,0.0144 -0.1712,0.0402 -0.2505,0.0774 -0.078,0.0373 -0.1267,0.0573 -0.142,0.0573l-0.0738 -0.0172 -0.0083 0c-0.0348,0 -0.0682,0.0187 -0.0975,0.0545 -0.0306,0.0358 -0.0737,0.0588 -0.1308,0.0674l-0.0487 0c-0.0404,0 -0.0961,0.0157 -0.1657,0.0501 -0.0696,0.033 -0.1057,0.0502 -0.1113,0.0502l-0.0738 -0.0086c-0.0334,0.0229 -0.0612,0.0387 -0.0835,0.0458 -0.0237,0.0086 -0.046,0.023 -0.0682,0.0402 -0.0209,0.0186 -0.0432,0.0315 -0.0654,0.0401 -0.0209,0.0086 -0.046,0.0244 -0.0752,0.0459 -0.0278,0.0229 -0.0515,0.0344 -0.0668,0.0344l-0.0167 0 -0.0487 -0.0086c-0.0195,0 -0.0446,0.0172 -0.0738,0.0516 -0.0306,0.0358 -0.0585,0.0573 -0.0835,0.0659 -0.0265,0.0086 -0.0501,0.0215 -0.0738,0.0401 -0.0237,0.0172 -0.0473,0.0287 -0.071,0.0316 -0.0139,0.0129 -0.0334,0.0444 -0.057,0.0917 -0.0251,0.0473 -0.0557,0.0888 -0.0947,0.1232 -0.0376,0.0359 -0.0626,0.0631 -0.0752,0.0817 -0.0125,0.0201 -0.0236,0.0301 -0.0348,0.0301 -0.1336,0 -0.2004,-0.086 -0.2004,-0.2565l0.0821 -0.1806c0.0571,-0.1419 0.1434,-0.2293 0.2603,-0.2594 0.0306,0 0.1072,-0.0315 0.2325,-0.0932l0.16 -0.0716zm12.1515 1.3471c0.2479,0.135 0.0459,0.4969 -0.1942,0.3662l-0.3436 -0.172c-0.1421,-0.0799 -0.1191,-0.0384 -0.2151,0.1025 -0.0987,0.145 -0.2009,0.2951 -0.2016,0.2961 -0.1777,0.2396 -0.5261,0.0153 -0.3536,-0.2174 0.0009,-0.0013 0.2339,-0.3534 0.4011,-0.556 0.0968,-0.1171 0.1534,-0.1779 0.2934,-0.1113l0.6136 0.2919zm-0.1197 3.0352l-0.1962 0.1679c-0.0099,-0.0112 -0.0213,-0.0154 -0.0327,-0.0154 -0.0284,0 -0.0626,0.0238 -0.1024,0.0728 -0.0398,0.049 -0.0682,0.0742 -0.0853,0.0742l-0.0413 -0.0084c-0.0696,0.0518 -0.1194,0.0826 -0.1507,0.0909 -0.0299,0.007 -0.0668,0.0224 -0.1095,0.0448 -0.0441,0.021 -0.0825,0.0336 -0.1166,0.0364 -0.0355,0.0028 -0.064,0.014 -0.0853,0.035 -0.0228,0.021 -0.0768,0.0308 -0.1635,0.0308l-0.0669 -0.0084c-0.0355,0.0168 -0.0597,0.0252 -0.0697,0.0252 -0.0227,0 -0.0469,-0.0126 -0.0711,-0.035 -0.0256,-0.0238 -0.0526,-0.0364 -0.081,-0.0392 -0.0299,-0.0028 -0.0597,-0.0224 -0.0896,-0.0574 -0.0313,-0.035 -0.0597,-0.0601 -0.0853,-0.0741 -0.027,-0.0126 -0.0484,-0.0322 -0.0654,-0.0574l-0.0583 -0.049c-0.047,-0.0322 -0.0925,-0.0924 -0.138,-0.1805 -0.0441,-0.0868 -0.0654,-0.1553 -0.0654,-0.2043l0 -0.0168 0.0071 -0.0784 -0.0071 -0.0895c0.0099,-0.0112 0.0242,-0.035 0.0412,-0.07l0 -0.1316 0.0996 -0.3274c0.0057,-0.014 -0.0057,-0.0322 -0.0327,-0.0532 -0.0285,0.0406 -0.0555,0.0658 -0.0839,0.0742 -0.0285,0.007 -0.047,0.0266 -0.0569,0.0573 -0.0099,0.0294 -0.0256,0.0448 -0.0483,0.0448l-0.0291 -0.0098c-0.0105,0.0071 -0.0221,0.0133 -0.0349,0.0188 -0.0063,0.0139 -0.0144,0.0333 -0.0242,0.0582 -0.0082,0.0206 -0.0185,0.037 -0.0312,0.0492l-0.0001 0.0012c0.0028,0 0.0028,0.0028 0,0.007 -0.0029,0.0042 -0.0085,0.0098 -0.0156,0.0182l-0.0626 0.0084 -0.0171 0.0237c-0.0611,0.0336 -0.1322,0.0896 -0.2119,0.1694l-0.0839 0.0853 -0.0128 0c-0.027,-0.0265 -0.0497,-0.0405 -0.0668,-0.0405 -0.0099,0 -0.0242,0.0181 -0.0412,0.0573 -0.0939,0.0924 -0.1621,0.1456 -0.2034,0.1596 -0.0171,0.0056 -0.0455,0.028 -0.0882,0.0657l-0.0824 0.0532 -0.0626 0c-0.0085,0.0084 -0.0156,0.0196 -0.0227,0.035 -0.0072,0.0154 -0.0313,0.0378 -0.074,0.0672 -0.0412,0.0308 -0.0711,0.0573 -0.0896,0.0797 -0.017,0.0238 -0.0427,0.0406 -0.0768,0.0518l-0.0739 -0.0168c-0.0256,0.0434 -0.0711,0.0658 -0.1379,0.0658 -0.0171,0.0112 -0.0413,0.0322 -0.0726,0.063 -0.0327,0.0322 -0.054,0.0476 -0.0654,0.0476 -0.0099,0 -0.0398,-0.0168 -0.0867,-0.049l-0.0086 0c-0.027,0 -0.0412,0.021 -0.0412,0.0615 0,0.0406 -0.0256,0.063 -0.0768,0.0658 -0.0512,0.0028 -0.0995,0.0154 -0.1436,0.0406l-0.0086 0c-0.064,0 -0.1094,-0.0112 -0.1379,-0.035 -0.027,-0.0224 -0.0526,-0.0406 -0.0754,-0.0518 -0.0853,0.028 -0.1308,0.042 -0.1365,0.042 -0.0341,0 -0.0654,-0.014 -0.0952,-0.042l-0.1792 -0.0895c-0.0114,-0.0084 -0.0313,-0.0448 -0.0583,-0.1106l-0.0256 -0.0322c-0.0882,-0.0168 -0.1479,-0.1077 -0.1792,-0.2715l-0.0327 -0.0979c-0.0057,-0.0056 -0.0085,-0.0182 -0.0085,-0.0364 0,-0.0169 0.0041,-0.0391 0.0121,-0.0663l-0.0008 0.0005c-0.0755,0.049 -0.1394,0.0994 -0.1917,0.1498 -0.0524,0.0503 -0.0959,0.0867 -0.1308,0.1077l-0.1831 0.1274 -0.0247 0.042c-0.0058,0.0041 -0.0319,0.0167 -0.0784,0.0335 -0.048,0.0182 -0.0901,0.0406 -0.1264,0.0686l-0.077 0.0406c-0.016,0.0112 -0.0436,0.0182 -0.0828,0.021 -0.0378,0.0028 -0.0712,0.0182 -0.1003,0.0462 -0.0276,0.0294 -0.0508,0.0433 -0.0683,0.0433l-0.0639 -0.0083 -0.0843 0.0251c-0.0479,0 -0.1075,-0.0279 -0.1772,-0.0839 -0.0698,-0.056 -0.1046,-0.1162 -0.1046,-0.1777l0 -0.0252 0.0087 -0.0574c0,-0.0112 -0.0087,-0.0392 -0.0247,-0.084 -0.0174,-0.0448 -0.0262,-0.0699 -0.0262,-0.0755l0.0088 -0.0574 -0.0088 -0.0252c0,-0.0742 0.0059,-0.1204 0.0175,-0.14 0.0116,-0.0182 0.0203,-0.0447 0.0247,-0.0797 0.0058,-0.0336 0.0116,-0.0616 0.0174,-0.084l0.0218 -0.1021c0.0116,-0.0322 0.0247,-0.0546 0.0421,-0.0658 0.0058,-0.021 0.0175,-0.0588 0.0349,-0.1106l0.016 -0.0741 0.0436 -0.0574c0.0218,-0.021 0.0349,-0.0504 0.0392,-0.0882 0.0044,-0.0364 0.0203,-0.0756 0.045,-0.1161 0.0262,-0.0406 0.0393,-0.0658 0.0393,-0.0742 0,-0.0322 -0.0175,-0.049 -0.0523,-0.049 -0.0102,0 -0.0465,0.0224 -0.1061,0.0658l-0.077 -0.0252c-0.0058,0 -0.0203,0.014 -0.0465,0.042 0,0.0098 -0.0131,0.0182 -0.0378,0.0238 -0.0261,0.0056 -0.0494,0.0266 -0.0726,0.0615l-0.0334 0.0084 -0.0567 -0.0251 -0.016 0c-0.029,0 -0.0465,0.0307 -0.0508,0.0909 -0.032,0.0434 -0.0726,0.0728 -0.1235,0.0854l-0.0944 0.0252c-0.0306,0.0112 -0.0538,0.035 -0.0683,0.0741 -0.0145,0.0378 -0.0422,0.0728 -0.0843,0.1036 -0.0436,0.0322 -0.0712,0.0476 -0.0857,0.0476 -0.0122,0 -0.0235,-0.001 -0.0338,-0.003 -0.0179,0.0214 -0.0308,0.0476 -0.0388,0.0786 -0.0088,0.0349 -0.0364,0.0573 -0.0814,0.0671 -0.0174,0.0602 -0.0392,0.0952 -0.0654,0.1036 -0.0276,0.0084 -0.0654,0.035 -0.1133,0.0811 -0.048,0.0462 -0.1162,0.1008 -0.2034,0.1638 -0.0886,0.0629 -0.1496,0.1119 -0.1816,0.1455 -0.032,0.035 -0.0552,0.0518 -0.0654,0.0518 -0.0058,0 -0.0174,-0.0056 -0.0349,-0.0168 -0.0159,-0.0112 -0.0276,-0.0154 -0.0334,-0.0154 -0.0174,0 -0.029,0.0182 -0.0348,0.0574l-0.016 0.0406c-0.0378,0.0209 -0.0581,0.0321 -0.064,0.0321l-0.0261 -0.0084 -0.0174 0c-0.0335,0 -0.0509,0.0126 -0.0509,0.0378l0.0262 0.0406 0 0.0084c0,0.0378 -0.0233,0.0574 -0.0683,0.0574 -0.0305,0 -0.1221,0.0504 -0.2717,0.1511l-0.1235 0.0252 -0.1031 0.0532c-0.0335,-0.0196 -0.0553,-0.0294 -0.064,-0.0294l-0.0668 0.021 -0.1235 0.0084c-0.0029,0 -0.0552,-0.028 -0.1555,-0.0826 -0.1017,-0.0546 -0.1612,-0.1091 -0.1816,-0.1637 -0.0189,-0.0546 -0.045,-0.1092 -0.0755,-0.1651 -0.032,-0.056 -0.048,-0.0952 -0.048,-0.1176 0,-0.1315 0.0117,-0.2239 0.0349,-0.2799 0.0218,-0.0573 0.0363,-0.0979 0.0421,-0.1259 0.0059,-0.0266 0.0218,-0.056 0.0494,-0.0882 0.0262,-0.0308 0.048,-0.0825 0.0654,-0.1539 0.0828,-0.1582 0.1395,-0.2547 0.17,-0.2911 0.032,-0.035 0.0552,-0.0784 0.0726,-0.1301l0.0553 -0.0742c0.0058,-0.0056 0.0145,-0.0266 0.0261,-0.063 0.0116,-0.0378 0.0247,-0.0587 0.0421,-0.0644 0.0233,-0.0377 0.0349,-0.0629 0.0349,-0.0741 0,-0.0784 -0.0378,-0.1176 -0.1119,-0.1176 -0.013,0 -0.029,0.014 -0.0465,0.042 -0.0174,0.0294 -0.0552,0.0574 -0.1162,0.084 -0.061,0.028 -0.0988,0.0476 -0.1133,0.0616 -0.0145,0.0139 -0.045,0.0307 -0.0915,0.0517 -0.0465,0.0196 -0.0872,0.0518 -0.1221,0.0966l-0.0712 0.0322c-0.0232,0.0517 -0.0436,0.0811 -0.0595,0.0867 -0.0175,0.0042 -0.0698,0.0182 -0.1584,0.0406 -0.0058,0.0028 -0.0189,0.0196 -0.0421,0.049 -0.0233,0.0294 -0.0552,0.0448 -0.0974,0.0448 -0.0348,0.0336 -0.0683,0.0714 -0.1031,0.1147 -0.0117,0 -0.0407,0.0112 -0.0886,0.0336l-0.0858 0.0196c-0.0218,0.0168 -0.0479,0.0434 -0.0741,0.0784 -0.0276,0.035 -0.077,0.0532 -0.1511,0.0532 -0.0421,0 -0.0639,-0.0322 -0.0639,-0.098 0,-0.1344 0.0494,-0.2407 0.1468,-0.3205 0.0973,-0.0783 0.1699,-0.1217 0.215,-0.1273 0.045,-0.0042 0.0741,-0.021 0.0857,-0.049 0.0102,-0.0266 0.0378,-0.049 0.0828,-0.0672 0.0436,-0.0182 0.0944,-0.0573 0.1526,-0.1189 0.0581,-0.0616 0.122,-0.1036 0.1903,-0.1246l0.0508 -0.0573 0.0639 -0.0168 0.0248 -0.0532c0.1394,-0.0798 0.2382,-0.1539 0.2978,-0.2253 0.0058,-0.0112 0.0189,-0.0224 0.0392,-0.0336 0.0189,-0.0098 0.0407,-0.0294 0.0639,-0.0574 0.1047,-0.1007 0.2296,-0.1511 0.3734,-0.1511 0.1715,0 0.2616,0.0993 0.2732,0.2995l0.0247 0.0615c0.0232,0.0378 0.0552,0.1162 0.0959,0.2337 0.0421,0.1176 0.0624,0.189 0.0624,0.217 0,0.0741 -0.0247,0.1469 -0.0726,0.2211 -0.0392,0.0195 -0.1351,0.1217 -0.2848,0.3078l-0.0436 0.028c-0.0217,0.049 -0.0523,0.098 -0.0886,0.147 -0.0566,0.0195 -0.0857,0.0405 -0.0857,0.0615l0 0.0742c0,0.0056 -0.0058,0.0168 -0.0189,0.0336 -0.0131,0.0154 -0.0305,0.0476 -0.0523,0.0937l-0.0349 0.049c-0.0116,0.0112 -0.0232,0.0336 -0.0334,0.0672 -0.0116,0.035 -0.0276,0.0658 -0.0494,0.0924 -0.0218,0.0279 -0.0319,0.0489 -0.0319,0.0657 0,0.0406 0.0552,0.0616 0.1656,0.0616 0.0058,0 0.0276,-0.0084 0.0639,-0.0252l0.0596 0.0168c0.0058,0 0.0203,-0.0084 0.0421,-0.0266 0.0233,-0.0182 0.0581,-0.0322 0.1046,-0.0434 0.0465,-0.0098 0.0886,-0.0266 0.1235,-0.0489 0.0363,-0.021 0.0785,-0.0406 0.1279,-0.0574 0.0494,-0.0154 0.0973,-0.042 0.1423,-0.0798 0.0451,-0.0364 0.0901,-0.063 0.1337,-0.0798 0.0451,-0.0168 0.0857,-0.0419 0.1235,-0.0755 0.0392,-0.0336 0.0814,-0.0658 0.1308,-0.0966 0.0479,-0.0294 0.1235,-0.0951 0.2295,-0.1959 0.0683,-0.0518 0.1148,-0.0812 0.1395,-0.0868 0.0058,0 0.0305,-0.0363 0.0755,-0.1077 0.0368,-0.0614 0.0776,-0.0969 0.1244,-0.1065l0.0601 -0.0517 0.0262 0c0.0203,0 0.0494,-0.021 0.0901,-0.0615l0.0421 -0.0168c0.0567,-0.0812 0.1061,-0.1288 0.1482,-0.1428l0.0683 -0.0489c0.0116,-0.0112 0.0276,-0.021 0.0494,-0.0294 0.0218,-0.0084 0.0552,-0.035 0.1017,-0.0798 0.0479,-0.0448 0.0842,-0.0672 0.1133,-0.0672 0.0291,0 0.0508,0.0028 0.0683,0.0084 0.0174,-0.0335 0.0508,-0.0657 0.1017,-0.0965 0.0508,-0.0322 0.093,-0.07 0.1235,-0.1134l0.0552 -0.0238c0.0465,-0.0224 0.0857,-0.0504 0.122,-0.0839 0.0349,-0.035 0.0814,-0.0518 0.138,-0.0518 0.0829,0 0.1686,0.0406 0.2572,0.1203 0.0901,0.0812 0.1351,0.1582 0.1351,0.2323l-0.0726 0.3191c-0.048,0.2351 -0.1017,0.3583 -0.1627,0.3694l-0.016 0.0868c-0.0407,0.0266 -0.0596,0.049 -0.0596,0.0658l0.0247 0.0979c0,0.014 -0.0145,0.0336 -0.0465,0.0616 -0.0058,0 -0.0087,0.0084 -0.0087,0.0238l0 0.1693c0,0.0294 -0.0189,0.0546 -0.0596,0.0728 0.0058,0.0056 0.0146,0.0112 0.0262,0.0168 0.0174,-0.0168 0.0552,-0.0252 0.1148,-0.0252l0.0682 0.0084 0.093 -0.0896c0.0204,-0.0056 0.048,-0.0182 0.0828,-0.0391 0.0364,-0.021 0.0959,-0.0476 0.1817,-0.0798l0.5579 -0.4114c0.0711,-0.0686 0.1261,-0.1049 0.165,-0.11l0.0055 -0.009c0.0555,-0.0895 0.1195,-0.1483 0.192,-0.1749 0.0057,0 0.0085,-0.0028 0.0085,-0.0084l-0.0085 -0.0658c0.0114,-0.0112 0.0384,-0.0462 0.0825,-0.1063 0.0455,-0.0602 0.0881,-0.0868 0.1294,-0.0784 0.0313,-0.0434 0.0697,-0.0798 0.1166,-0.1092 0.0469,-0.0279 0.091,-0.0657 0.1294,-0.1119l0.1536 -0.0952c0.108,-0.0699 0.1877,-0.1063 0.2374,-0.1063l0.0626 0c0.0327,-0.0546 0.0768,-0.0812 0.1323,-0.0812 0.054,0 0.0881,0.0084 0.1052,0.0238 0.0042,0.0056 0.0099,0.0084 0.0156,0.0084 0.0029,0 0.0199,-0.0112 0.0498,-0.0322 0.0313,-0.0224 0.0683,-0.0336 0.1123,-0.0336 0.0114,0 0.074,0.0224 0.1878,0.0658 0.0341,-0.0322 0.0654,-0.049 0.0952,-0.049 0.0114,0 0.0313,0.0084 0.0583,0.0252 0.0285,0.0154 0.0569,0.0308 0.0853,0.042 0.0299,0.0126 0.0584,0.063 0.0854,0.1525 0.0284,0.0882 0.0426,0.1386 0.0426,0.1498 0,0.0433 -0.0369,0.0951 -0.1109,0.1539 -0.0739,0.0588 -0.1422,0.0882 -0.2062,0.0882 -0.0213,0 -0.0497,-0.0196 -0.0825,-0.0574 -0.0839,-0.0168 -0.1535,-0.0364 -0.2118,-0.0616 -0.0782,0.0168 -0.138,0.0364 -0.1792,0.0616l-0.0085 0 -0.037 -0.0336 -0.0342 -0.007 -0.0085 0c-0.0071,0.0098 -0.0185,0.0294 -0.0327,0.0574 -0.0441,0.0294 -0.0825,0.049 -0.1138,0.0587 -0.0327,0.0098 -0.0582,0.0252 -0.0782,0.0448 -0.0184,0.021 -0.0512,0.042 -0.0967,0.0644 -0.0469,0.021 -0.0796,0.0518 -0.1023,0.0896 -0.0555,0.0308 -0.0953,0.0475 -0.1209,0.0531l-0.0242 0c-0.0227,0.0434 -0.074,0.1162 -0.155,0.217l-0.1081 0.1763c-0.0241,0.0224 -0.0554,0.0476 -0.091,0.0756 -0.037,0.0293 -0.054,0.0545 -0.054,0.0769 0,0.0056 0.0028,0.0182 0.0085,0.0406l0 0.0406c0,0.0168 -0.0142,0.0364 -0.0398,0.0602 -0.027,0.0223 -0.0398,0.0391 -0.0398,0.0503l0.0085 0.091 -0.0341 0.1427c0,0.0854 0.0625,0.1274 0.1877,0.1274l0.0626 0 0.1791 -0.0294c0.0583,-0.007 0.1067,-0.0154 0.1451,-0.0238 0.0398,-0.0084 0.0611,-0.0126 0.0668,-0.0126 0.0057,0 0.0285,-0.0154 0.0669,-0.0448l0.0412 0 0.0384 -0.0084c0.0114,-0.0573 0.0896,-0.1049 0.2375,-0.1427 0.0327,-0.0504 0.0896,-0.0868 0.1678,-0.1092 0.0796,-0.0238 0.1592,-0.0727 0.2389,-0.1497l0.0625 0c0.0086,0 0.0342,-0.0154 0.0783,-0.0476 0.0426,-0.0308 0.0867,-0.0559 0.1322,-0.0755 0.0455,-0.0196 0.074,-0.035 0.0853,-0.049 0.0114,-0.014 0.0327,-0.0266 0.0626,-0.0364 0.0498,-0.077 0.1095,-0.1246 0.1792,-0.1441l0.017 -0.0168c0.0441,-0.0378 0.0711,-0.0574 0.0825,-0.0574l0.0498 0.0084c0.0284,0 0.0455,-0.0168 0.0526,-0.0504 0.0071,-0.035 0.0512,-0.0812 0.1337,-0.1399 0.081,-0.0588 0.1336,-0.0882 0.155,-0.0882 0.0097,0 0.0185,0.0009 0.0265,0.0028 0.03,-0.039 0.0836,-0.0855 0.1626,-0.1386 0.0498,-0.0097 0.0924,-0.0461 0.1294,-0.1063 0.0384,-0.0294 0.0896,-0.0546 0.1522,-0.0742 0.0625,-0.0182 0.1095,-0.0462 0.1422,-0.0839 0.0312,-0.0364 0.1265,-0.0938 0.2829,-0.1722 0.1579,-0.0769 0.2716,-0.1161 0.3442,-0.1161 0.0227,0 0.0526,-0.007 0.0924,-0.0182 0.0384,-0.0126 0.0754,-0.0238 0.1081,-0.0336 0.0327,-0.0098 0.0682,-0.0238 0.1038,-0.0448 0.037,-0.021 0.0654,-0.0308 0.0882,-0.0308l0.1208 0.0406c0.0896,0.0252 0.1437,0.0434 0.1636,0.0532 0.0042,0.0056 0.0327,0.0182 0.0853,0.035 0.0512,0.0182 0.1038,0.042 0.1578,0.0727 0.0541,0.0294 0.0811,0.0854 0.0811,0.168 -0.0469,0.0685 -0.0697,0.1049 -0.0697,0.1105 0,0.0112 0.0313,0.0266 0.0953,0.049 0.0227,0.0406 0.0555,0.0938 0.0995,0.1595l0.047 0.1442 0.0085 0.3358 -0.0085 0.0322c-0.0313,0.028 -0.047,0.0462 -0.047,0.0546l0.0128 0.0812 -0.0327 0.1147c-0.0085,0.0364 -0.0227,0.0588 -0.0426,0.07 -0.0185,0.0112 -0.0313,0.0252 -0.037,0.0406l-0.0242 0.0336c-0.0057,0.0084 -0.0185,0.0322 -0.0355,0.0713 -0.0185,0.0392 -0.0384,0.07 -0.0612,0.0924 -0.0213,0.0224 -0.0355,0.0476 -0.0412,0.0784 -0.0057,0.0294 -0.0199,0.0517 -0.0412,0.0657 -0.0228,0.0126 -0.0384,0.028 -0.0484,0.042 -0.01,0.0154 -0.0256,0.028 -0.0484,0.0392zm-1.2969 0.1064l0.0171 0.0937 0.0086 0.0084 0.0668 0 0.0213 0.0084c0.0555,0.0112 0.0967,0.0168 0.1237,0.0168 0.0868,0 0.155,-0.021 0.2062,-0.0644 0.0512,-0.042 0.0924,-0.0629 0.1237,-0.0629 0.0299,0 0.0555,-0.021 0.0768,-0.0616 0.0214,-0.0406 0.0341,-0.0616 0.0398,-0.0616l0.0584 0 0.0156 -0.0084c0,-0.063 0.0284,-0.1077 0.0867,-0.1357 0.0569,-0.0266 0.0967,-0.063 0.1195,-0.1078 0.0242,-0.0448 0.0512,-0.0797 0.0825,-0.1021 0.0298,-0.0238 0.0512,-0.0546 0.0625,-0.0924l0.0327 -0.0504c0.0114,-0.0098 0.0171,-0.0308 0.0171,-0.0602l0.0782 -0.1483c0.0171,-0.0686 0.0256,-0.1217 0.0256,-0.1595 0,-0.0574 -0.0298,-0.1022 -0.0896,-0.1358 -0.0597,-0.0322 -0.0896,-0.0965 -0.0896,-0.1931 0,-0.063 0.0327,-0.1203 0.0982,-0.1735 0.0654,-0.0532 0.0981,-0.0854 0.0981,-0.0966 0,-0.0168 -0.0085,-0.0252 -0.0256,-0.0252 -0.0085,0 -0.0398,0.0112 -0.0953,0.0336 -0.0199,0.0378 -0.118,0.0882 -0.2958,0.1512 -0.0583,-0.0266 -0.091,-0.0406 -0.0967,-0.0406 -0.0156,0 -0.0327,0.0168 -0.0497,0.049 -0.0171,0.0335 -0.0328,0.0559 -0.0498,0.0699l-0.0541 0c-0.0056,0 -0.0241,0.0182 -0.054,0.0532 -0.0313,0.035 -0.0697,0.0532 -0.1166,0.0532l-0.0498 0.049c0.0029,0.0447 -0.0256,0.0895 -0.0839,0.1357l-0.0455 0.0532c-0.0284,0.0336 -0.064,0.0714 -0.1081,0.1147l-0.0753 0.1848c-0.0299,0.0713 -0.0455,0.1245 -0.0455,0.1595 -0.0085,0.0168 -0.027,0.0336 -0.0569,0.0518 -0.0284,0.0182 -0.0427,0.0406 -0.0427,0.0671 0,0.0056 0.0086,0.0196 0.0285,0.0406 0.0199,0.0224 0.0298,0.0392 0.0298,0.0504l-0.017 0.0532 -0.0171 0.1511 0.0412 0.1316zm-4.0766 -3.1473l-0.0262 -0.1595 0 -0.0252c0,-0.1274 0.0451,-0.1988 0.1366,-0.2128 0.0189,-0.0028 0.0799,-0.0209 0.1787,-0.0531 0.0508,0.0112 0.1046,0.0546 0.1598,0.1287 0.0552,0.0756 0.0828,0.1414 0.0828,0.1987 0,0.0056 -0.0043,0.0182 -0.013,0.0364 -0.0088,0.0196 -0.0146,0.056 -0.0175,0.1092 -0.0014,0.0531 -0.0305,0.0993 -0.0828,0.1399 -0.0523,0.0392 -0.1075,0.0588 -0.1671,0.0588 -0.0407,0 -0.0915,-0.0266 -0.1525,-0.0798 -0.061,-0.0532 -0.093,-0.1007 -0.0988,-0.1413z"/>
    <path id="_373241208" class="fil1" d="M136.554 222.231c0.0831,0 0.1628,0.0207 0.239,0.0624 0.0764,0.0415 0.1365,0.1011 0.1801,0.1786 0.0436,0.0777 0.0654,0.1589 0.0654,0.2436 0,0.0844 -0.0214,0.165 -0.0641,0.2414 -0.043,0.0764 -0.1026,0.1363 -0.1792,0.179 -0.0765,0.0428 -0.157,0.0641 -0.2412,0.0641 -0.0845,0 -0.1648,-0.0213 -0.2415,-0.0641 -0.0764,-0.0427 -0.1362,-0.1026 -0.179,-0.179 -0.0427,-0.0764 -0.0641,-0.157 -0.0641,-0.2414 0,-0.0847 0.0218,-0.1659 0.0654,-0.2436 0.0436,-0.0775 0.1037,-0.1371 0.1799,-0.1786 0.0765,-0.0417 0.1561,-0.0624 0.2393,-0.0624zm0.0006 0.095c-0.0667,0 -0.1306,0.0167 -0.1917,0.0499 -0.0611,0.0333 -0.1093,0.0812 -0.1445,0.1436 -0.0354,0.0624 -0.0529,0.1278 -0.0529,0.1961 0,0.068 0.0173,0.1328 0.0516,0.1943 0.0343,0.0616 0.0823,0.1097 0.1438,0.1443 0.0616,0.0345 0.1261,0.0518 0.1937,0.0518 0.0678,0 0.1324,-0.0173 0.1939,-0.0518 0.0613,-0.0346 0.1093,-0.0827 0.1438,-0.1443 0.0346,-0.0615 0.0519,-0.1263 0.0519,-0.1943 0,-0.0683 -0.0175,-0.1337 -0.0527,-0.1961 -0.0352,-0.0624 -0.0836,-0.1103 -0.1449,-0.1436 -0.0613,-0.0332 -0.1255,-0.0499 -0.192,-0.0499zm-0.2196 0.6489l0 -0.5141 0.1045 0c0.0978,0 0.1527,0.0004 0.1643,0.0013 0.0346,0.0028 0.0616,0.0097 0.0808,0.0205 0.0192,0.0108 0.0352,0.0272 0.048,0.0492 0.0129,0.0223 0.0194,0.0469 0.0194,0.0739 0,0.0369 -0.0121,0.0686 -0.0365,0.095 -0.0242,0.0265 -0.0583,0.0427 -0.1022,0.0492 0.0156,0.0058 0.0277,0.0123 0.0361,0.0192 0.0084,0.0069 0.0201,0.0201 0.0348,0.0395 0.0039,0.005 0.0164,0.026 0.038,0.0627l0.0607 0.1036 -0.129 0 -0.0431 -0.0833c-0.029,-0.0562 -0.0532,-0.0916 -0.0722,-0.1061 -0.0188,-0.0144 -0.0429,-0.0218 -0.0721,-0.0218l-0.027 0 0 0.2112 -0.1045 0zm0.1045 -0.2921l0.0423 0c0.0603,0 0.0976,-0.0024 0.1123,-0.0069 0.0145,-0.0048 0.0259,-0.0128 0.0344,-0.0245 0.0086,-0.0116 0.0127,-0.0248 0.0127,-0.0395 0,-0.0144 -0.0041,-0.0272 -0.0123,-0.0382 -0.0082,-0.0112 -0.0199,-0.0192 -0.0352,-0.0242 -0.0151,-0.0047 -0.0525,-0.0071 -0.1119,-0.0071l-0.0423 0 0 0.1404z"/>
   </g>
  </g>
 </g>
</svg>
